<svg height="512" viewBox="0 0 128 128" width="512" xmlns="http://www.w3.org/2000/svg"><g><circle cx="64" cy="64" fill="#7d6187" r="48.833"/><path d="m24.6 64a39.4 39.4 0 1 1 39.4 39.4 39.4 39.4 0 0 1 -39.4-39.4z" fill="#8ac9ff"/><path d="m64 103.4a39.4 39.4 0 0 0 39.4-39.4h-78.8a39.4 39.4 0 0 0 39.4 39.4z" fill="#b3bb4d"/><g fill="#eaeff4"><path d="m96.171 65.75h-16.271a1.75 1.75 0 0 1 0-3.5h16.271a1.75 1.75 0 0 1 0 3.5z"/><path d="m48.1 65.75h-16.27a1.75 1.75 0 0 1 0-3.5h16.27a1.75 1.75 0 1 1 0 3.5z"/><g><path d="m66.83 32.629h-5.66a1.75 1.75 0 0 1 0-3.5h5.66a1.75 1.75 0 1 1 0 3.5z"/><path d="m72.33 39.253h-16.66a1.75 1.75 0 0 1 0-3.5h16.66a1.75 1.75 0 0 1 0 3.5z"/><path d="m66.83 45.877h-5.66a1.75 1.75 0 0 1 0-3.5h5.66a1.75 1.75 0 0 1 0 3.5z"/><path d="m72.33 52.5h-16.66a1.75 1.75 0 0 1 0-3.5h16.66a1.75 1.75 0 0 1 0 3.5z"/><path d="m66.83 59.126h-5.66a1.75 1.75 0 0 1 0-3.5h5.66a1.75 1.75 0 0 1 0 3.5z"/><path d="m72.33 65.75h-16.66a1.75 1.75 0 0 1 0-3.5h16.66a1.75 1.75 0 0 1 0 3.5z"/><path d="m66.83 72.374h-5.66a1.75 1.75 0 1 1 0-3.5h5.66a1.75 1.75 0 1 1 0 3.5z"/><path d="m72.33 79h-16.66a1.75 1.75 0 0 1 0-3.5h16.66a1.75 1.75 0 0 1 0 3.5z"/><path d="m66.83 85.623h-5.66a1.75 1.75 0 0 1 0-3.5h5.66a1.75 1.75 0 0 1 0 3.5z"/><path d="m72.33 92.247h-16.66a1.75 1.75 0 0 1 0-3.5h16.66a1.75 1.75 0 0 1 0 3.5z"/><path d="m66.83 98.871h-5.66a1.75 1.75 0 0 1 0-3.5h5.66a1.75 1.75 0 0 1 0 3.5z"/></g></g><g fill="#472356"><path d="m94.171 64a5.841 5.841 0 0 0 5.841 5.841h2.958a39.523 39.523 0 0 0 0-11.682h-2.958a5.841 5.841 0 0 0 -5.841 5.841z"/><path d="m25.03 69.841h2.958a5.841 5.841 0 1 0 0-11.682h-2.958a39.523 39.523 0 0 0 0 11.682z"/></g><g fill="#5e3369"><path d="m54.1 107.605a1.75 1.75 0 0 0 -3.38-.91l-1.074 3.99c1.11.341 2.241.633 3.383.895z"/><path d="m22.555 89.818 3.575-2.05a1.75 1.75 0 1 0 -1.741-3.036l-3.58 2.054q.821 1.55 1.746 3.032z"/><path d="m43.125 103.536a1.75 1.75 0 0 0 -3.03-1.752l-2.061 3.566c.986.621 1.993 1.211 3.025 1.761z"/><path d="m30.675 99.679 2.925-2.909a1.75 1.75 0 1 0 -2.47-2.479l-2.93 2.909q1.194 1.285 2.475 2.479z"/><path d="m77.279 106.7a1.75 1.75 0 0 0 -3.379.91l1.071 3.975c1.142-.262 2.273-.554 3.383-.895z"/><path d="m103.611 84.732a1.75 1.75 0 0 0 -1.742 3.036l3.576 2.051q.925-1.484 1.746-3.033z"/><path d="m99.8 97.2-2.922-2.911a1.75 1.75 0 0 0 -2.478 2.481l2.921 2.909q1.279-1.194 2.479-2.479z"/><path d="m65.75 112.789v-4.119a1.75 1.75 0 0 0 -3.5 0v4.119c.582.02 1.163.044 1.75.044s1.168-.024 1.75-.044z"/><path d="m87.905 101.784a1.75 1.75 0 0 0 -3.031 1.752l2.066 3.576c1.032-.551 2.04-1.141 3.026-1.762z"/></g></g></svg>