<?xml version="1.0" encoding="iso-8859-1"?>
<!-- Generator: Adobe Illustrator 19.0.0, SVG Export Plug-In . SVG Version: 6.00 Build 0)  -->
<svg version="1.1" id="Capa_1" xmlns="http://www.w3.org/2000/svg" xmlns:xlink="http://www.w3.org/1999/xlink" x="0px" y="0px"
	 viewBox="0 0 464.001 464.001" style="enable-background:new 0 0 464.001 464.001;" xml:space="preserve">
<path style="fill:#29ABE2;" d="M272.001,305.273c104.624,6.728,184,39.424,184,78.728c0,44.184-100.288,80-224,80
	s-224-35.816-224-80c0-39.304,79.376-72,184-78.728"/>
<path style="fill:#ED1C24;" d="M131.585,208.361l100.416,143.64l100.416-143.64c17.895-25.436,27.526-55.764,27.584-86.864
	c-0.633-49.67-31.94-93.763-78.624-110.736l-5.856-2.232C247.35-2.176,216.346-2.823,187.753,6.697
	c-49.271,15.535-83.031,60.911-83.752,112.568v2.232C104.059,152.597,113.69,182.925,131.585,208.361L131.585,208.361z"/>
<circle style="fill:#F2F2F2;" cx="232.001" cy="119.201" r="68.2"/>
<g>
</g>
<g>
</g>
<g>
</g>
<g>
</g>
<g>
</g>
<g>
</g>
<g>
</g>
<g>
</g>
<g>
</g>
<g>
</g>
<g>
</g>
<g>
</g>
<g>
</g>
<g>
</g>
<g>
</g>
</svg>
