<svg id="Layer_1" enable-background="new 0 0 512 512" height="512" viewBox="0 0 512 512" width="512" xmlns="http://www.w3.org/2000/svg"><g><path d="m283.3 512h-54.6c-2.845 0-5.151-2.306-5.151-5.151v-76.749h64.901v76.749c.001 2.845-2.305 5.151-5.15 5.151z" fill="#655e67"/><path d="m303.388 449.674h-94.777c-5.69 0-10.302-4.612-10.302-10.302v-63.871h115.38v63.871c.001 5.69-4.611 10.302-10.301 10.302z" fill="#544f56"/><path d="m244.668 449.674h-36.056c-5.687 0-10.302-4.615-10.302-10.302v-63.871h36.056v63.871c0 5.687 4.615 10.302 10.302 10.302z" fill="#444145"/><circle cx="256" cy="200.875" fill="#766d78" r="200.875"/><circle cx="256" cy="200.875" fill="#72d1fb" r="158.638"/><g><path d="m256 78.809c-102.427 0-159.974 119.866-94.196 199.621 2.716 3.293 7.587 3.76 10.877 1.044 3.292-2.715 3.76-7.586 1.044-10.877-14.049-17.033-22.427-38.092-24.034-59.995h25.449c4.268 0 7.726-3.459 7.726-7.726s-3.459-7.726-7.726-7.726h-25.473c1.698-23.595 11.104-45.089 25.713-61.965 19.204 19.204 19.204 20.241 23.443 20.241 6.824 0 10.344-8.308 5.464-13.19l-17.979-17.979c16.876-14.609 38.37-24.015 61.965-25.713v25.473c0 4.268 3.459 7.726 7.726 7.726s7.726-3.459 7.726-7.726v-25.473c23.595 1.698 45.089 11.104 61.965 25.713l-17.979 17.979c-3.017 3.018-3.017 7.909 0 10.928 3.019 3.017 7.909 3.016 10.928 0l17.979-17.979c14.609 16.876 24.015 38.37 25.713 61.965h-25.473c-4.268 0-7.726 3.459-7.726 7.726s3.459 7.726 7.726 7.726h25.449c-1.607 21.903-9.985 42.962-24.034 59.995-4.164 5.047-.531 12.643 5.957 12.643 2.226 0 4.437-.958 5.965-2.81 65.156-79 9.027-199.621-94.195-199.621z" fill="#444145"/><path d="m224.011 158.989c-3.018-3.016-7.909-3.016-10.928 0-3.017 3.018-3.017 7.909 0 10.928 106.06 106.059 98.872 100.243 103.445 100.243 6.824 0 10.344-8.308 5.464-13.19z" fill="#da2f3c"/></g><circle cx="256" cy="200.875" fill="#444145" r="25.068"/><path d="m274.028 400.957c-5.934.525-11.95.793-18.028.793-110.94 0-200.875-89.935-200.875-200.875s89.935-200.875 200.875-200.875c6.078 0 12.094.268 18.028.793-102.493 9.128-182.847 95.22-182.847 200.082s80.354 190.954 182.847 200.082z" fill="#655e67"/><path d="m274.028 358.493c-5.913.67-11.93 1.02-18.028 1.02-87.473 0-158.638-71.165-158.638-158.638s71.165-158.638 158.638-158.638c6.099 0 12.115.35 18.028 1.02-79.015 8.973-140.609 76.244-140.609 157.618s61.594 148.645 140.609 157.618z" fill="#40c1fa"/></g></svg>