<svg id="Capa_1" enable-background="new 0 0 512 512" height="512" viewBox="0 0 512 512" width="512" xmlns="http://www.w3.org/2000/svg"><g><g><g><g><g><g><g><g><g><g><g><g><g><g><g><g><g><g><g><g><g><g><circle cx="256" cy="256" fill="#7982ed" r="256"/></g></g></g></g></g></g></g></g></g></g></g></g></g></g></g></g></g></g></g></g></g><path d="m282.928 510.601c126.397-13.213 225.429-118.4 228.973-247.439l-101.566-101.568-8.534 27.302-118.444-118.443-12.155 208.273-78.775-78.775-74.571-19.459-23.359 40.672 43.5 43.5-20.14 25.741 108.063 108.065-22.354 32.979z" fill="#4d56b2"/><path d="m433.693 230.835-23.358 23.357v-92.598h-30v92.6l-23.359-23.359-21.213 21.213 59.571 59.571 59.572-59.57z" fill="#e9ecf4"/><path d="m192.428 199.952-59.572-59.571-59.572 59.57 21.213 21.214 23.359-23.358v92.599h30v-92.599l23.359 23.358z" fill="#fff"/><g><path d="m297.05 309.485v-208.435c0-22.672-18.379-41.05-41.05-41.05-22.671 0-41.05 18.378-41.05 41.05v208.435c-21.697 13.657-36.115 37.82-36.115 65.351.001 42.616 34.548 77.164 77.165 77.164s77.164-34.548 77.164-77.164c0-27.531-14.418-51.694-36.114-65.351z" fill="#fff"/></g><g><path d="m214.95 101.05v208.435c-21.697 13.657-36.115 37.82-36.115 65.351.001 42.616 34.548 77.164 77.165 77.164v-392c-22.671 0-41.05 18.378-41.05 41.05z" fill="#fff"/><path d="m297.05 309.485v-208.435c0-22.672-18.379-41.05-41.05-41.05v392c42.617 0 77.164-34.548 77.164-77.164 0-27.531-14.418-51.694-36.114-65.351z" fill="#e9ecf4"/></g><g><path d="m277.18 335.771v-164.165c0-11.697-9.483-21.18-21.18-21.18s-21.18 9.483-21.18 21.18v164.165c-13.848 7.524-23.249 22.197-23.249 39.065 0 24.537 19.891 44.428 44.428 44.428s44.429-19.891 44.429-44.428c.001-16.869-9.4-31.541-23.248-39.065z" fill="#e06a24"/></g><g><path d="m234.82 171.606v164.165c-13.848 7.524-23.249 22.197-23.249 39.065 0 24.537 19.891 44.428 44.428 44.428v-268.837c-11.696 0-21.179 9.482-21.179 21.179z" fill="#e06a24"/><path d="m277.18 335.771v-164.165c0-11.697-9.483-21.18-21.18-21.18v268.838c24.537 0 44.429-19.891 44.429-44.428 0-16.869-9.401-31.541-23.249-39.065z" fill="#d24611"/></g></g></svg>